<?xml version="1.0" encoding="UTF-8" standalone="no"?>
<!-- Created with Inkscape (http://www.inkscape.org/) -->

<svg
   version="1.1"
   id="svg1"
   width="747.83569"
   height="161.75098"
   viewBox="0 0 747.83569 161.75098"
   sodipodi:docname="conservation_law.pdf"
   xmlns:inkscape="http://www.inkscape.org/namespaces/inkscape"
   xmlns:sodipodi="http://sodipodi.sourceforge.net/DTD/sodipodi-0.dtd"
   xmlns="http://www.w3.org/2000/svg"
   xmlns:svg="http://www.w3.org/2000/svg">
  <defs
     id="defs1">
    <clipPath
       clipPathUnits="userSpaceOnUse"
       id="clipPath2">
      <path
         d="M 0,0 H 1070.8333 V 231.61282 H 0 Z"
         transform="scale(0.33245137)"
         clip-rule="evenodd"
         id="path2" />
    </clipPath>
    <clipPath
       clipPathUnits="userSpaceOnUse"
       id="clipPath4">
      <path
         d="M 0,0 H 1070.8333 V 222.58894 H 0 Z"
         transform="matrix(0,-0.33245137,0.33245137,0,140.58,213.59999)"
         clip-rule="evenodd"
         id="path4" />
    </clipPath>
    <clipPath
       clipPathUnits="userSpaceOnUse"
       id="clipPath6">
      <path
         d="M 0,0 H 1070.8333 V 222.58894 H 0 Z"
         transform="matrix(0,-0.33245137,0.33245137,0,140.58,213.59999)"
         clip-rule="evenodd"
         id="path6" />
    </clipPath>
    <clipPath
       clipPathUnits="userSpaceOnUse"
       id="clipPath8">
      <path
         d="M 0,0 H 1070.8333 V 222.58894 H 0 Z"
         transform="matrix(0.33245137,0,0,0.33245137,-0.5,-0.5)"
         clip-rule="evenodd"
         id="path8" />
    </clipPath>
    <clipPath
       clipPathUnits="userSpaceOnUse"
       id="clipPath10">
      <path
         d="M 0,0 H 1070.8333 V 222.58894 H 0 Z"
         transform="matrix(0.33245137,0,0,0.33245137,-0.5,-0.5)"
         clip-rule="evenodd"
         id="path10" />
    </clipPath>
    <clipPath
       clipPathUnits="userSpaceOnUse"
       id="clipPath12">
      <path
         d="M 0,0 H 1070.8333 V 222.58894 H 0 Z"
         transform="matrix(0.33245137,0,0,0.33245137,-90.328126,-22)"
         clip-rule="evenodd"
         id="path12" />
    </clipPath>
    <clipPath
       clipPathUnits="userSpaceOnUse"
       id="clipPath14">
      <path
         d="M 0,0 H 1070.8333 V 222.58894 H 0 Z"
         transform="matrix(0.33245137,0,0,0.33245137,-0.5,-0.5)"
         clip-rule="evenodd"
         id="path14" />
    </clipPath>
    <clipPath
       clipPathUnits="userSpaceOnUse"
       id="clipPath16">
      <path
         d="M 0,0 H 1070.8333 V 222.58894 H 0 Z"
         transform="matrix(0.33245137,0,0,0.33245137,-0.5,-0.5)"
         clip-rule="evenodd"
         id="path16" />
    </clipPath>
    <clipPath
       clipPathUnits="userSpaceOnUse"
       id="clipPath18">
      <path
         d="M 0,0 H 1070.8333 V 222.58894 H 0 Z"
         transform="matrix(0.33245137,0,0,0.33245137,-87.328125,-49)"
         clip-rule="evenodd"
         id="path18" />
    </clipPath>
    <clipPath
       clipPathUnits="userSpaceOnUse"
       id="clipPath20">
      <path
         d="M 0,0 H 1070.8333 V 222.58894 H 0 Z"
         transform="matrix(24.462904,0,0,-24.06261,-12287.68,2162.5869)"
         clip-rule="evenodd"
         id="path20" />
    </clipPath>
    <clipPath
       clipPathUnits="userSpaceOnUse"
       id="clipPath22">
      <path
         d="M 0,0 H 1070.8333 V 222.58894 H 0 Z"
         transform="matrix(24.462904,0,0,-24.06261,-12853.68,2162.5869)"
         clip-rule="evenodd"
         id="path22" />
    </clipPath>
    <clipPath
       clipPathUnits="userSpaceOnUse"
       id="clipPath24">
      <path
         d="M 0,0 H 1070.8333 V 222.58894 H 0 Z"
         transform="matrix(24.462904,0,0,-24.06261,-12487.179,3524.5875)"
         clip-rule="evenodd"
         id="path24" />
    </clipPath>
    <clipPath
       clipPathUnits="userSpaceOnUse"
       id="clipPath26">
      <path
         d="M 0,0 H 1070.8333 V 222.58894 H 0 Z"
         transform="matrix(24.462904,0,0,-24.06261,-13053.18,3524.5875)"
         clip-rule="evenodd"
         id="path26" />
    </clipPath>
    <clipPath
       clipPathUnits="userSpaceOnUse"
       id="clipPath28">
      <path
         d="M 0,0 H 1070.8333 V 222.58894 H 0 Z"
         transform="matrix(24.462904,0,0,-24.06261,-12067.68,2838.5873)"
         clip-rule="evenodd"
         id="path28" />
    </clipPath>
    <clipPath
       clipPathUnits="userSpaceOnUse"
       id="clipPath30">
      <path
         d="M 0,0 H 1070.8333 V 222.58894 H 0 Z"
         transform="matrix(0.33245137,0,0,0.33245137,-0.5,-0.5)"
         clip-rule="evenodd"
         id="path30" />
    </clipPath>
    <clipPath
       clipPathUnits="userSpaceOnUse"
       id="clipPath32">
      <path
         d="M 0,0 H 1070.8333 V 222.58894 H 0 Z"
         transform="matrix(0.33245137,0,0,0.33245137,-0.5,-0.5)"
         clip-rule="evenodd"
         id="path32" />
    </clipPath>
    <clipPath
       clipPathUnits="userSpaceOnUse"
       id="clipPath34">
      <path
         d="M 0,0 H 1070.8333 V 222.58894 H 0 Z"
         transform="matrix(0.33245137,0,0,0.33245137,-0.5,-0.5)"
         clip-rule="evenodd"
         id="path34" />
    </clipPath>
    <clipPath
       clipPathUnits="userSpaceOnUse"
       id="clipPath36">
      <path
         d="M 0,0 H 1070.8333 V 222.58894 H 0 Z"
         transform="matrix(0.33245137,0,0,0.33245137,-0.5,-0.5)"
         clip-rule="evenodd"
         id="path36" />
    </clipPath>
    <clipPath
       clipPathUnits="userSpaceOnUse"
       id="clipPath38">
      <path
         d="M 0,0 H 1070.8333 V 222.58894 H 0 Z"
         transform="matrix(0.33245137,0,0,0.33245137,-0.5,-0.5)"
         clip-rule="evenodd"
         id="path38" />
    </clipPath>
    <clipPath
       clipPathUnits="userSpaceOnUse"
       id="clipPath40">
      <path
         d="M 0,0 H 1070.8333 V 222.58894 H 0 Z"
         transform="matrix(0.33245137,0,0,0.33245137,-0.5,-0.5)"
         clip-rule="evenodd"
         id="path40" />
    </clipPath>
    <clipPath
       clipPathUnits="userSpaceOnUse"
       id="clipPath42">
      <path
         d="M 0,0 H 1070.8333 V 222.58894 H 0 Z"
         transform="matrix(0.33245137,0,0,0.33245137,-240.32813,-49)"
         clip-rule="evenodd"
         id="path42" />
    </clipPath>
    <clipPath
       clipPathUnits="userSpaceOnUse"
       id="clipPath44">
      <path
         d="M 0,0 H 1070.8333 V 222.58894 H 0 Z"
         transform="matrix(0.33245137,0,0,0.33245137,-237.32813,-22)"
         clip-rule="evenodd"
         id="path44" />
    </clipPath>
  </defs>
  <sodipodi:namedview
     id="namedview1"
     pagecolor="#ffffff"
     bordercolor="#000000"
     borderopacity="0.25"
     inkscape:showpageshadow="2"
     inkscape:pageopacity="0.0"
     inkscape:pagecheckerboard="0"
     inkscape:deskcolor="#d1d1d1" />
  <g
     id="g1"
     inkscape:groupmode="layer"
     inkscape:label="1"
     transform="translate(202.58452,43.817436)">
    <path
       id="path1"
       d="M 0,0 H 356 V 77 H 0 Z"
       style="fill:#ffffff;fill-opacity:1;fill-rule:nonzero;stroke:none"
       transform="matrix(2.1006621,0,0,2.1006621,-202.58452,-43.817437)"
       clip-path="url(#clipPath2)" />
    <path
       id="path3"
       d="m 142.09,-125.39 c 0,-8.28 15.66999,-15 35,-15 9.28,0 18.18,1.58 24.75,4.39 6.55999,2.82001 10.25,6.63001 10.25,10.61 v 322.8 c 0,8.28 -15.67,15 -35,15 -19.33001,0 -35,-6.72 -35,-15 z"
       style="fill:#ffffff;fill-opacity:1;fill-rule:nonzero;stroke:#000000;stroke-width:1;stroke-linecap:butt;stroke-linejoin:miter;stroke-miterlimit:10;stroke-dasharray:none;stroke-opacity:1"
       transform="matrix(0,2.1006621,-2.1006621,0,246.11686,-339.1285)"
       clip-path="url(#clipPath4)" />
    <path
       id="path5"
       d="m 212.09,-125.39 c 0,8.28 -15.67,15 -35,15 -19.33001,0 -35,-6.72 -35,-15"
       style="fill:none;stroke:#000000;stroke-width:1;stroke-linecap:butt;stroke-linejoin:miter;stroke-miterlimit:10;stroke-dasharray:none;stroke-opacity:1"
       transform="matrix(0,2.1006621,-2.1006621,0,246.11686,-339.1285)"
       clip-path="url(#clipPath6)" />
    <path
       id="path7"
       d="M 145.5,70.440002 146,1"
       style="fill:none;stroke:#000000;stroke-width:1;stroke-linecap:butt;stroke-linejoin:miter;stroke-miterlimit:10;stroke-dasharray:none;stroke-opacity:1"
       transform="matrix(2.1006621,0,0,2.1006621,-201.53419,-42.767106)"
       clip-path="url(#clipPath8)" />
    <path
       id="path9"
       d="M 206,70.5 V 1.5"
       style="fill:none;stroke:#000000;stroke-width:1;stroke-linecap:butt;stroke-linejoin:miter;stroke-miterlimit:10;stroke-dasharray:none;stroke-opacity:1"
       transform="matrix(2.1006621,0,0,2.1006621,-201.53419,-42.767106)"
       clip-path="url(#clipPath10)" />
    <path
       id="path11"
       d="m 1.737209,-8.3277744 c 0.1623298,0 0.3003101,0.060874 0.4220575,0.1785628 0.117689,0.1095726 0.1785627,0.2434946 0.1785627,0.4058244 0,0.1623298 -0.060874,0.3043684 -0.1785627,0.4220574 -0.1217474,0.1217474 -0.2597277,0.1785628 -0.4220575,0.1785628 -0.1623297,0 -0.3043683,-0.056815 -0.4220574,-0.1785628 -0.1217473,-0.117689 -0.1785627,-0.2597276 -0.1785627,-0.4220574 0,-0.1623298 0.056815,-0.2962518 0.1785627,-0.4058244 0.1176891,-0.1176891 0.2597277,-0.1785628 0.4220574,-0.1785628 z m 0.4869894,2.8083052 v 4.3017391 c 0,0.33683432 0.020291,0.56409601 0.064932,0.6817851 0.052757,0.1095726 0.1298638,0.19073749 0.2272617,0.24349467 0.097398,0.0568154 0.2678441,0.0811649 0.5194553,0.0811649 V -2.5673108e-4 H 0.4385708 V -0.21128544 c 0.25972765,0 0.43017392,-0.0202912 0.5194553,-0.0649319 0.0852231,-0.0527572 0.1542133,-0.13798031 0.2110287,-0.25972764 0.052757,-0.11768909 0.081165,-0.34495078 0.081165,-0.68178512 v -2.0615882 c 0,-0.5843872 -0.016233,-0.9618039 -0.048699,-1.1363084 -0.032466,-0.1176891 -0.077107,-0.198854 -0.1298639,-0.2434947 -0.056815,-0.052757 -0.13798027,-0.081165 -0.24349463,-0.081165 -0.1095726,0 -0.23943642,0.028408 -0.38959147,0.081165 L 0.35740591,-4.8701501 1.9644707,-5.5194692 Z m 3.0396251,1.1363084 c 0.6371444,-0.7548334 1.2377645,-1.1363084 1.8018605,-1.1363084 0.2921936,0 0.5397465,0.077107 0.746717,0.2272617 0.215087,0.1420385 0.3895915,0.381475 0.5194553,0.714251 0.085223,0.2272617 0.1298638,0.5843872 0.1298638,1.0713765 v 2.2888499 c 0,0.34900905 0.024349,0.58032899 0.081165,0.69801808 0.040582,0.0973979 0.1055144,0.17450451 0.1947957,0.22726169 0.097398,0.0568154 0.2759607,0.0811649 0.5356883,0.0811649 V -2.5673108e-4 H 6.6273936 V -0.21128544 h 0.1136309 c 0.2475529,0 0.4220574,-0.0365242 0.5194553,-0.11363085 0.097398,-0.0730484 0.166388,-0.18667924 0.2110287,-0.34089253 0.00812,-0.0527572 0.016233,-0.23537818 0.016233,-0.55192128 v -2.191452 c 0,-0.4869893 -0.064932,-0.8359983 -0.1947957,-1.0551435 -0.1217473,-0.2272617 -0.332776,-0.3408926 -0.6330861,-0.3408926 -0.4666981,0 -0.9333963,0.2556694 -1.3960361,0.76295 v 2.8245381 c 0,0.36930027 0.020291,0.59656197 0.064932,0.6817851 0.052757,0.1095726 0.1298638,0.19073749 0.2272617,0.24349467 0.097398,0.0568154 0.2921936,0.0811649 0.5843872,0.0811649 V -2.5673108e-4 H 3.4944289 V -0.21128544 h 0.1136308 c 0.2678442,0 0.4545234,-0.0689902 0.5519213,-0.21102872 0.097398,-0.13798031 0.1460968,-0.40582444 0.1460968,-0.79541594 v -1.9804233 c 0,-0.6493191 -0.016233,-1.0429688 -0.048699,-1.1850074 -0.032466,-0.1379803 -0.081165,-0.2313199 -0.1460968,-0.2759606 -0.056815,-0.052757 -0.1298638,-0.081165 -0.2272616,-0.081165 -0.1095726,0 -0.2394365,0.028408 -0.3895915,0.081165 L 3.397031,-4.8701501 5.0203288,-5.5194692 H 5.2638235 Z M 11.801655,-4.951315 v 3.5387892 c 0,0.49916406 0.05276,0.81164889 0.16233,0.94151271 0.150155,0.17450451 0.344951,0.25972765 0.584387,0.25972765 h 0.48699 V -2.5673108e-4 H 9.837465 V -0.21128544 h 0.227262 c 0.162329,0 0.308426,-0.0365242 0.43829,-0.11363085 0.129864,-0.0730484 0.215087,-0.17856276 0.259728,-0.30842658 0.05276,-0.13798031 0.08116,-0.39770793 0.08116,-0.77918293 V -4.951315 H 9.804999 v -0.4220574 h 1.038911 v -0.3408925 c 0,-0.5397466 0.08117,-0.9942699 0.243494,-1.3635702 0.170447,-0.365242 0.438291,-0.6655521 0.795416,-0.8928138 0.357126,-0.2272617 0.754834,-0.3408925 1.201241,-0.3408925 0.397708,0 0.771066,0.1298638 1.120075,0.3895915 0.227262,0.1745045 0.340893,0.3733585 0.340893,0.6006201 0,0.1095726 -0.05682,0.2191452 -0.16233,0.3246596 -0.0974,0.1095726 -0.202912,0.1623298 -0.308427,0.1623298 -0.0974,0 -0.194796,-0.032466 -0.292193,-0.097398 -0.0974,-0.064932 -0.223204,-0.2029122 -0.373359,-0.4220574 -0.142038,-0.215087 -0.271902,-0.3611838 -0.389591,-0.4382904 -0.121748,-0.064932 -0.25567,-0.097398 -0.405825,-0.097398 -0.186679,0 -0.340892,0.048699 -0.470756,0.1460968 -0.121747,0.089281 -0.206971,0.2353782 -0.259728,0.4382904 -0.05682,0.1947958 -0.08117,0.7142511 -0.08117,1.5583659 v 0.3733585 h 1.379803 v 0.4220574 z m 3.753876,-3.3764594 v 7.1100443 c 0,0.33683432 0.02029,0.56409601 0.06493,0.6817851 0.05276,0.1095726 0.129864,0.19073749 0.227262,0.24349467 0.105514,0.0568154 0.296252,0.0811649 0.568154,0.0811649 v 0.21102869892 h -2.62974 V -0.21128544 c 0.247553,0 0.413941,-0.0202912 0.503222,-0.0649319 0.08522,-0.0527572 0.154213,-0.13798031 0.211029,-0.25972764 0.05276,-0.11768909 0.08117,-0.34495078 0.08117,-0.68178512 v -4.8698933 c 0,-0.6046785 -0.01623,-0.9739787 -0.0487,-1.1038425 -0.02435,-0.1379803 -0.06493,-0.2353782 -0.129864,-0.2921936 -0.05682,-0.052757 -0.129864,-0.081165 -0.227262,-0.081165 -0.0974,0 -0.227261,0.032466 -0.389591,0.097398 l -0.0974,-0.2110287 1.607065,-0.6493191 z m 4.111002,2.8083052 c 0.811649,0 1.460968,0.3084266 1.947957,0.9252797 0.422058,0.5194553 0.633087,1.128192 0.633087,1.8180936 0,0.4788728 -0.121748,0.9658621 -0.357126,1.460968 -0.227262,0.4869893 -0.543805,0.85628954 -0.941513,1.10384246 -0.401766,0.24755291 -0.852231,0.37335849 -1.347337,0.37335849 -0.811649,0 -1.45691,-0.31654307 -1.931724,-0.9577457 -0.401766,-0.55192125 -0.60062,-1.16065795 -0.60062,-1.83432645 0,-0.4869894 0.117689,-0.9739787 0.357125,-1.4609681 0.247553,-0.4869893 0.572213,-0.8441148 0.973979,-1.0713765 0.397708,-0.2353782 0.819765,-0.3571255 1.266172,-0.3571255 z m -0.178563,0.3733585 c -0.219145,0 -0.430174,0.064932 -0.633086,0.1947957 -0.20697,0.1217474 -0.373358,0.3368343 -0.503222,0.6493191 -0.129864,0.3043684 -0.194796,0.6980181 -0.194796,1.1850074 0,0.779183 0.150155,1.4528515 0.454524,2.0128893 0.312484,0.56409595 0.722367,0.84411482 1.233706,0.84411482 0.377417,0 0.689901,-0.15015504 0.941513,-0.45452338 0.247552,-0.31248484 0.373358,-0.85223134 0.373358,-1.62329774 0,-0.9496293 -0.20697,-1.6963462 -0.616853,-2.240151 -0.284077,-0.3774167 -0.633086,-0.5681542 -1.055144,-0.5681542 z m 3.258771,-0.2272617 h 2.240151 v 0.2272617 c -0.206971,0.012175 -0.340893,0.048699 -0.405825,0.1136308 -0.06493,0.056815 -0.0974,0.1379803 -0.0974,0.2434947 0,0.1217473 0.03247,0.2678441 0.0974,0.4382904 l 1.152542,3.0842658 1.152541,-2.4998786 -0.308427,-0.7954159 c -0.08928,-0.2353782 -0.20697,-0.397708 -0.357125,-0.4869894 -0.08928,-0.052757 -0.251611,-0.085223 -0.486989,-0.097398 v -0.2272617 h 2.548577 v 0.2272617 c -0.284077,0.012175 -0.478873,0.060874 -0.584387,0.1460968 -0.08928,0.064932 -0.129864,0.1704463 -0.129864,0.3084266 0,0.077107 0.01623,0.1542133 0.0487,0.2272617 l 1.217473,3.0842657 1.136309,-2.9706349 c 0.07305,-0.2029122 0.113631,-0.3733585 0.113631,-0.5032223 0,-0.073048 -0.04058,-0.1379803 -0.113631,-0.1947958 -0.07711,-0.052757 -0.223204,-0.085223 -0.438291,-0.097398 v -0.2272617 h 1.68823 v 0.2272617 c -0.349009,0.056815 -0.596562,0.2840771 -0.746717,0.6817851 l -1.80186,4.62639865 H 28.428283 L 27.097179,-3.2630853 25.52258,0.16207305 H 25.311551 L 23.590856,-4.3506948 C 23.481283,-4.6307137 23.367652,-4.8214512 23.249963,-4.918849 23.14039,-5.0162469 22.974002,-5.0892953 22.746741,-5.1461107 Z m 0,0"
       style="fill:#000000;fill-opacity:1;fill-rule:nonzero;stroke:none"
       aria-label="inflow"
       transform="matrix(2.1006621,0,0,2.1006621,-12.835656,2.3971257)"
       clip-path="url(#clipPath12)" />
    <path
       id="path13"
       d="m 56,27.84 h 83.63"
       style="fill:none;stroke:#000000;stroke-width:1;stroke-linecap:butt;stroke-linejoin:miter;stroke-miterlimit:10;stroke-dasharray:none;stroke-opacity:1"
       transform="matrix(2.1006621,0,0,2.1006621,-201.53419,-42.767106)"
       clip-path="url(#clipPath14)" />
    <path
       id="path15"
       d="m 144.88,27.84 -7,3.5 1.75,-3.5 -1.75,-3.5 z"
       style="fill:#000000;fill-opacity:1;fill-rule:nonzero;stroke:#000000;stroke-width:1;stroke-linecap:butt;stroke-linejoin:miter;stroke-miterlimit:10;stroke-dasharray:none;stroke-opacity:1"
       transform="matrix(2.1006621,0,0,2.1006621,-201.53419,-42.767106)"
       clip-path="url(#clipPath16)" />
    <path
       id="path17"
       d="m 3.0043386,-5.5199688 c 0.8116489,0 1.4609681,0.3084266 1.9479574,0.9252798 0.4220574,0.5194553 0.6330861,1.1281919 0.6330861,1.8180935 0,0.4788729 -0.1217473,0.9658622 -0.3571255,1.460968 C 5.0009949,-0.82863815 4.6844519,-0.4593379 4.2867439,-0.21178499 3.8849777,0.03576792 3.4345126,0.1615735 2.9394067,0.1615735 2.1277578,0.1615735 1.482497,-0.15496957 1.0076824,-0.79617219 0.60591616,-1.3480934 0.40706219,-1.9568301 0.40706219,-2.6304987 c 0,-0.4869893 0.11768908,-0.9739787 0.35712551,-1.460968 0.2475529,-0.4869893 0.5722125,-0.8441149 0.9739787,-1.0713765 0.3977079,-0.2353782 0.8197654,-0.3571256 1.2661722,-0.3571256 z m -0.1785627,0.3733585 c -0.2191452,0 -0.4301739,0.064932 -0.6330861,0.1947958 -0.2069705,0.1217473 -0.3733585,0.3368343 -0.5032224,0.6493191 -0.1298638,0.3043683 -0.1947957,0.698018 -0.1947957,1.1850074 0,0.7791829 0.150155,1.4528515 0.4545234,2.0128892 0.3124848,0.56409601 0.7223675,0.84411488 1.2337063,0.84411488 0.3774167,0 0.6899016,-0.15015505 0.9415127,-0.45452338 0.2475529,-0.3124848 0.3733585,-0.8522313 0.3733585,-1.6232978 0,-0.9496292 -0.2069705,-1.6963462 -0.6168531,-2.2401509 C 3.5968423,-4.9558728 3.2478333,-5.1466103 2.8257759,-5.1466103 Z M 11.080245,-5.373872 v 3.2628286 c 0,0.6168532 0.0081,0.9983281 0.03247,1.13630845 0.03247,0.14203856 0.08117,0.23943643 0.146097,0.2921936 0.06493,0.0568154 0.13798,0.0811649 0.227262,0.0811649 0.117689,0 0.251611,-0.0324659 0.405824,-0.0973979 l 0.08116,0.19479573 -1.590832,0.66555209 h -0.27596 V -0.97473495 C 9.6517431,-0.47557088 9.2986758,-0.16308605 9.0511229,-0.03322223 8.8116865,0.09664159 8.5560171,0.1615735 8.2881729,0.1615735 7.9838046,0.1615735 7.724077,0.07229212 7.50899,-0.09815414 7.2898448,-0.26860041 7.1396898,-0.49180386 7.0544666,-0.76370624 6.9651852,-1.0437251 6.9246028,-1.4333166 6.9246028,-1.9324806 v -2.3862478 c 0,-0.2597276 -0.028408,-0.4382904 -0.081165,-0.5356883 C 6.7866225,-4.9518145 6.7054576,-5.0248629 6.5999432,-5.0816784 6.4903706,-5.1344355 6.2955749,-5.1547268 6.015556,-5.1466103 V -5.373872 h 1.8830255 v 3.6037211 c 0,0.4991641 0.085223,0.82788191 0.2597276,0.99021169 0.1704463,0.15421329 0.3774168,0.22726169 0.6168532,0.22726169 0.1704462,0 0.3611837,-0.0527572 0.5681542,-0.16232978 0.215087,-0.10551436 0.4707564,-0.3084266 0.7629495,-0.6006202 v -3.0355668 c 0,-0.3124849 -0.05682,-0.5194553 -0.1623293,-0.6168532 C 9.8343641,-5.0735619 9.6030442,-5.1344355 9.2459186,-5.1466103 V -5.373872 Z m 2.852946,-1.7531616 v 1.7531616 h 1.249939 v 0.4220575 h -1.249939 v 3.4738572 c 0,0.3490091 0.0487,0.58438724 0.146097,0.71425106 0.0974,0.12174734 0.227261,0.17856276 0.389591,0.17856276 0.129864,0 0.251611,-0.0365242 0.373359,-0.11363084 0.117689,-0.0852231 0.211028,-0.21102872 0.27596,-0.37335848 h 0.227262 c -0.129864,0.38959145 -0.320601,0.68178506 -0.568154,0.87658079 -0.251611,0.18667925 -0.511339,0.27596062 -0.779183,0.27596062 -0.186679,0 -0.365242,-0.04869893 -0.535688,-0.1460968 -0.16233,-0.09739786 -0.288136,-0.23537818 -0.373359,-0.42205742 -0.07711,-0.182621 -0.113631,-0.47075636 -0.113631,-0.86034779 v -3.6037211 h -0.860348 v -0.1947958 c 0.215087,-0.085223 0.438291,-0.2313199 0.665553,-0.4382904 0.227261,-0.2029122 0.426115,-0.4464069 0.60062,-0.730484 0.08522,-0.150155 0.211028,-0.4220574 0.373358,-0.8116489 z m 3.867507,2.1752191 v 3.5387891 c 0,0.49916412 0.05276,0.81164894 0.16233,0.94151277 0.150155,0.17450451 0.344951,0.25972764 0.584387,0.25972764 h 0.486989 V -7.5627579e-4 H 15.836508 V -0.21178499 h 0.227261 c 0.16233,0 0.308427,-0.0365242 0.438291,-0.11363084 0.129864,-0.0730484 0.215087,-0.17856276 0.259727,-0.30842658 0.05276,-0.13798031 0.08116,-0.39770799 0.08116,-0.77918299 v -3.5387891 h -1.03891 V -5.373872 h 1.03891 v -0.3408925 c 0,-0.5397465 0.08116,-0.9942699 0.243495,-1.3635701 0.170446,-0.365242 0.43829,-0.6655521 0.795416,-0.8928138 0.357125,-0.2272617 0.754833,-0.3408925 1.20124,-0.3408925 0.397708,0 0.771067,0.1298638 1.120076,0.3895914 0.227261,0.1745045 0.340892,0.3733585 0.340892,0.6006202 0,0.1095726 -0.05682,0.2191452 -0.16233,0.3246596 -0.0974,0.1095726 -0.202912,0.1623297 -0.308426,0.1623297 -0.0974,0 -0.194796,-0.032466 -0.292194,-0.097398 -0.0974,-0.064932 -0.223203,-0.2029123 -0.373358,-0.4220575 -0.142039,-0.2150869 -0.271903,-0.3611837 -0.389592,-0.4382904 -0.121747,-0.064932 -0.255669,-0.097398 -0.405824,-0.097398 -0.186679,0 -0.340893,0.048699 -0.470756,0.1460968 -0.121748,0.089281 -0.206971,0.2353782 -0.259728,0.4382904 -0.05682,0.1947957 -0.08116,0.714251 -0.08116,1.5583659 v 0.3733584 h 1.379803 v 0.4220575 z m 3.753876,-3.3764594 v 7.1100443 c 0,0.33683427 0.02029,0.56409596 0.06493,0.68178505 0.05276,0.1095726 0.129864,0.19073749 0.227262,0.24349467 0.105514,0.0568154 0.296252,0.0811649 0.568154,0.0811649 V -7.5627579e-4 H 19.78518 V -0.21178499 c 0.247552,0 0.41394,-0.0202912 0.503222,-0.0649319 0.08522,-0.0527572 0.154213,-0.13798031 0.211029,-0.25972765 0.05276,-0.11768909 0.08116,-0.34495078 0.08116,-0.68178506 V -6.088123 c 0,-0.6046784 -0.01623,-0.9739787 -0.0487,-1.1038425 -0.02435,-0.1379803 -0.06493,-0.2353782 -0.129864,-0.2921936 -0.05682,-0.052757 -0.129864,-0.081165 -0.227262,-0.081165 -0.0974,0 -0.227262,0.032466 -0.389591,0.097398 l -0.0974,-0.2110287 1.607064,-0.6493191 z m 4.111002,2.8083051 c 0.811649,0 1.460968,0.3084266 1.947957,0.9252798 0.422058,0.5194553 0.633086,1.1281919 0.633086,1.8180935 0,0.4788729 -0.121747,0.9658622 -0.357125,1.460968 -0.227262,0.48698935 -0.543805,0.8562896 -0.941513,1.10384251 -0.401766,0.24755291 -0.852231,0.37335849 -1.347337,0.37335849 -0.811649,0 -1.45691,-0.31654307 -1.931725,-0.95774569 -0.401766,-0.55192121 -0.60062,-1.16065791 -0.60062,-1.83432651 0,-0.4869893 0.117689,-0.9739787 0.357126,-1.460968 0.247553,-0.4869893 0.572212,-0.8441149 0.973978,-1.0713765 0.397708,-0.2353782 0.819766,-0.3571256 1.266173,-0.3571256 z m -0.178563,0.3733585 c -0.219145,0 -0.430174,0.064932 -0.633086,0.1947958 -0.206971,0.1217473 -0.373359,0.3368343 -0.503222,0.6493191 -0.129864,0.3043683 -0.194796,0.698018 -0.194796,1.1850074 0,0.7791829 0.150155,1.4528515 0.454523,2.0128892 0.312485,0.56409601 0.722368,0.84411488 1.233707,0.84411488 0.377416,0 0.689901,-0.15015505 0.941512,-0.45452338 0.247553,-0.3124848 0.373359,-0.8522313 0.373359,-1.6232978 0,-0.9496292 -0.206971,-1.6963462 -0.616853,-2.2401509 -0.284078,-0.3774168 -0.633087,-0.5681543 -1.055144,-0.5681543 z m 3.25877,-0.2272617 h 2.240151 v 0.2272617 c -0.20697,0.012175 -0.340892,0.048699 -0.405824,0.1136309 -0.06493,0.056815 -0.0974,0.1379803 -0.0974,0.2434947 0,0.1217473 0.03247,0.2678441 0.0974,0.4382904 l 1.152541,3.0842657 1.152542,-2.4998785 -0.308427,-0.795416 c -0.08928,-0.2353781 -0.20697,-0.3977079 -0.357125,-0.4869893 -0.08928,-0.052757 -0.251612,-0.085223 -0.48699,-0.097398 V -5.373872 h 2.548578 v 0.2272617 c -0.284077,0.012175 -0.478873,0.060874 -0.584387,0.1460968 -0.08928,0.064932 -0.129864,0.1704463 -0.129864,0.3084266 0,0.077107 0.01623,0.1542133 0.0487,0.2272617 l 1.217473,3.0842658 1.136308,-2.9706349 c 0.07305,-0.2029123 0.113631,-0.3733585 0.113631,-0.5032224 0,-0.073048 -0.04058,-0.1379803 -0.113631,-0.1947957 -0.07711,-0.052757 -0.223203,-0.085223 -0.43829,-0.097398 V -5.373872 h 1.68823 v 0.2272617 c -0.349009,0.056815 -0.596562,0.2840771 -0.746717,0.6817851 L 34.67082,0.1615735 h -0.243494 l -1.331105,-3.4251583 -1.574598,3.4251583 h -0.211029 l -1.720696,-4.5127678 c -0.109572,-0.2800189 -0.223203,-0.4707564 -0.340892,-0.5681543 -0.109573,-0.097398 -0.275961,-0.1704462 -0.503223,-0.2272617 z m 0,0"
       style="fill:#000000;fill-opacity:1;fill-rule:nonzero;stroke:none"
       aria-label="outflow"
       transform="matrix(2.1006621,0,0,2.1006621,-19.137644,59.115)"
       clip-path="url(#clipPath18)" />
    <path
       id="path19"
       d="m 202,508 c -15.33333,0 -26.33333,4 -33,12 -6.66667,8 -10.33333,17 -11,27 0,6.66669 2,16.66669 6,30 4,13.33331 11,29 21,47 10,18 25,35 45,51 20,16 43.66666,27.66669 71,35 l 32,5 h 12 c 22,0 35,-0.33331 39,-1 42,-7.33331 77,-25 105,-53 28,-28 48,-59 60,-93 12,-34 17.66669,-71 17,-111 C 566,393.66666 550.33331,321.33334 519,240 487.66666,158.66666 448.66666,96.333336 402,53 348,3 288.33334,-22 223,-22 156.33333,-22 106.33334,4 73,56 52.333332,86.666672 42,117.33333 42,148 v 11 c 0,78 29,148.33334 87,211 58,62.66666 122.33333,94.33334 193,95 40.66666,0 71.33334,-10.33334 92,-31 20.66666,-20.66666 34.33334,-43 41,-67 l 3,11 c 13.33334,55.33334 20,101 20,137 0,58.66669 -13.66666,100 -41,124 -27.33334,24 -58.33334,36.33331 -93,37 -52,0 -92.33333,-21.33331 -121,-64 27.33333,-4 41,-17.33331 41,-40 0,-16.66669 -6,-31.33331 -18,-44 -12,-12.66669 -26.66667,-19.33334 -44,-20 z M 430,306 c 0,44 -9.66666,75.33334 -29,94 -19.33334,18.66666 -42,28 -68,28 -42,0 -79,-15.33334 -111,-46 -16.66667,-18.66666 -29.66667,-38.33334 -39,-59 -9.33333,-20.66666 -20.33333,-54.66666 -33,-102 -12,-48 -18,-83 -18,-105 0,-63.333336 33.33333,-95 100,-95 8,0 14,0.333334 18,1 51.33334,8.666668 92.66666,38.666664 124,90 10,16.66667 21.66666,44.66666 35,84 13.33334,39.33334 20.33334,76 21,110 z"
       style="fill:#000000;fill-opacity:1;fill-rule:nonzero;stroke:#000000;stroke-width:1;stroke-linecap:butt;stroke-linejoin:miter;stroke-miterlimit:10;stroke-dasharray:none;stroke-opacity:0.1237"
       transform="matrix(0.02854804,0,0,-0.02902296,148.20466,18.947216)"
       clip-path="url(#clipPath20)" />
    <path
       id="path21"
       d="m 50,252 c 0,76.66669 22.333328,150.33331 67,221 44.66667,70.66669 101,126.66669 169,168 68,41.33331 136,62.33331 204,63 60,0 107.66669,-17 143,-51 6,-6.66669 11,-12.33331 15,-17 4,-4.66669 6.66669,-8 8,-10 l 1,-3 c 2,0 11,8.66669 27,26 4.66669,4 9.66669,8.66669 15,14 5.33331,5.33331 10.66669,10.66669 16,16 5.33331,5.33331 8.66669,9 10,11 l 15,15 h 6 c 9.33331,0 14,-2.33331 14,-7 0,-2.66669 -10.66669,-48.33331 -32,-137 -24,-92.66669 -36,-139.33334 -36,-140 -1.33331,-3.33334 -3,-5.33334 -5,-6 -2,-0.66666 -8,-1.33334 -18,-2 h -16 c -4,4 -6,7 -6,9 0,0.66666 0.33331,3 1,7 0.66669,4 1.33331,10.66666 2,20 0.66669,9.33334 1,20 1,32 0,47.33331 -10.66669,88.66669 -32,124 -21.33331,35.33331 -57.66669,53.33331 -109,54 -17.33334,0 -36,-2.33331 -56,-7 -20,-4.66669 -44,-12.66669 -72,-24 -28,-11.33331 -55.66666,-30 -83,-56 -27.33334,-26 -51.66667,-57 -73,-93 -21.33333,-38 -38.33333,-82.33334 -51,-133 -12.66667,-50.66666 -19,-92 -19,-124 0,-76 25.33333,-130.666664 76,-164 32,-22.666668 71.33334,-34 118,-34 60.66666,0 114.66666,22.666664 162,68 47.33331,45.33334 78.66669,94.66666 94,148 2.66669,8.66667 4.66669,13.66667 6,15 1.33331,1.33334 6.66669,2 16,2 13.33331,0 20,-3 20,-9 0,-3.33333 -0.33331,-6.33333 -1,-9 C 627.66669,167.66666 586.33331,106.33334 523,55 459.66666,3.6666641 391.66669,-22 319,-22 243.66666,-22 180,3 128,53 76,103 50,169.33333 50,252 Z"
       style="fill:#000000;fill-opacity:1;fill-rule:nonzero;stroke:#000000;stroke-width:1;stroke-linecap:butt;stroke-linejoin:miter;stroke-miterlimit:10;stroke-dasharray:none;stroke-opacity:0.1237"
       transform="matrix(0.02854804,0,0,-0.02902296,164.36284,18.947216)"
       clip-path="url(#clipPath22)" />
    <path
       id="path23"
       d="m 202,508 c -15.33333,0 -26.33333,4 -33,12 -6.66667,8 -10.33333,17 -11,27 0,6.66669 2,16.66669 6,30 4,13.33331 11,29 21,47 10,18 25,35 45,51 20,16 43.66666,27.66669 71,35 l 32,5 h 12 c 22,0 35,-0.33331 39,-1 42,-7.33331 77,-25 105,-53 28,-28 48,-59 60,-93 12,-34 17.66669,-71 17,-111 C 566,393.66666 550.33331,321.33334 519,240 487.66666,158.66666 448.66666,96.333336 402,53 348,3 288.33334,-22 223,-22 156.33333,-22 106.33334,4 73,56 52.333332,86.666672 42,117.33333 42,148 v 11 c 0,78 29,148.33334 87,211 58,62.66666 122.33333,94.33334 193,95 40.66666,0 71.33334,-10.33334 92,-31 20.66666,-20.66666 34.33334,-43 41,-67 l 3,11 c 13.33334,55.33334 20,101 20,137 0,58.66669 -13.66666,100 -41,124 -27.33334,24 -58.33334,36.33331 -93,37 -52,0 -92.33333,-21.33331 -121,-64 27.33333,-4 41,-17.33331 41,-40 0,-16.66669 -6,-31.33331 -18,-44 -12,-12.66669 -26.66667,-19.33334 -44,-20 z M 430,306 c 0,44 -9.66666,75.33334 -29,94 -19.33334,18.66666 -42,28 -68,28 -42,0 -79,-15.33334 -111,-46 -16.66667,-18.66666 -29.66667,-38.33334 -39,-59 -9.33333,-20.66666 -20.33333,-54.66666 -33,-102 -12,-48 -18,-83 -18,-105 0,-63.333336 33.33333,-95 100,-95 8,0 14,0.333334 18,1 51.33334,8.666668 92.66666,38.666664 124,90 10,16.66667 21.66666,44.66666 35,84 13.33334,39.33334 20.33334,76 21,110 z"
       style="fill:#000000;fill-opacity:1;fill-rule:nonzero;stroke:#000000;stroke-width:1;stroke-linecap:butt;stroke-linejoin:miter;stroke-miterlimit:10;stroke-dasharray:none;stroke-opacity:0.1237"
       transform="matrix(0.02854804,0,0,-0.02902296,153.89996,58.476495)"
       clip-path="url(#clipPath24)" />
    <path
       id="path25"
       d="m 26,385 c -4.666668,4.66666 -7,8 -7,10 0,2.66666 1,8 3,16 2,8 3.666666,12.66666 5,14 1.333334,3.33334 4.333332,5 9,5 4.666668,0 21.666664,0.33334 51,1 h 53 l 19,80 c 2,7.33331 4.33333,17 7,29 2.66667,12 5,20.66669 7,26 2,5.33331 4,12 6,20 2,8 4.66667,13.66669 8,17 3.33333,3.33331 6.66667,7.33331 10,12 3.33333,4.66669 8,7.66669 14,9 6,1.33331 12,2 18,2 12,-0.66669 20.33333,-4.33331 25,-11 4.66666,-6.66669 7,-13 7,-19 0,-4.66669 -3,-20.33331 -9,-47 -6,-26.66669 -12.66667,-53 -20,-79 l -10,-37 c 0,-1.33334 16.66666,-2 50,-2 h 51 c 4.66666,-4.66666 7,-8.33334 7,-11 0,-14.66666 -4.33334,-26.33334 -13,-35 H 210 L 174,240 C 148,133.33333 135,76 135,68 c 0,-28 9,-42 27,-42 23.33333,0 46,11.333332 68,34 22,22.666672 39.66666,50.66666 53,84 1.33334,4 3,6.33333 5,7 2,0.66667 7,1.33333 15,2 h 4 c 10,0 15,-2.66667 15,-8 0,-2 -1,-6 -3,-12 -3.33334,-10.66666 -9.33334,-23.33334 -18,-38 C 292.33334,80.333336 281,64.666672 267,48 253,31.333332 236,17.333334 216,6 196,-5.333334 175.66667,-11 155,-11 135,-11 116,-6 98,4 80,14 67,31.333332 59,56 57.666668,61.333332 57,70.333336 57,83 v 18 l 35,140 c 23.33334,94 35.33334,141.33334 36,142 0,1.33334 -17,2 -51,2 z"
       style="fill:#000000;fill-opacity:1;fill-rule:nonzero;stroke:#000000;stroke-width:1;stroke-linecap:butt;stroke-linejoin:miter;stroke-miterlimit:10;stroke-dasharray:none;stroke-opacity:0.1237"
       transform="matrix(0.02854804,0,0,-0.02902296,170.05819,58.476495)"
       clip-path="url(#clipPath26)" />
    <path
       id="path27"
       d="m 120,220 h 1526 v 60 H 120 Z"
       style="fill:#000000;fill-opacity:1;fill-rule:nonzero;stroke:none"
       transform="matrix(0.02854804,0,0,-0.02902296,141.92408,38.566745)"
       clip-path="url(#clipPath28)" />
    <path
       id="path29"
       d="M 146,53 H 62.369999"
       style="fill:none;stroke:#000000;stroke-width:1;stroke-linecap:butt;stroke-linejoin:miter;stroke-miterlimit:10;stroke-dasharray:none;stroke-opacity:1"
       transform="matrix(2.1006621,0,0,2.1006621,-201.53419,-42.767106)"
       clip-path="url(#clipPath30)" />
    <path
       id="path31"
       d="m 57.119999,53 7.000004,-3.5 -1.750004,3.5 1.750004,3.5 z"
       style="fill:#000000;fill-opacity:1;fill-rule:nonzero;stroke:#000000;stroke-width:1;stroke-linecap:butt;stroke-linejoin:miter;stroke-miterlimit:10;stroke-dasharray:none;stroke-opacity:1"
       transform="matrix(2.1006621,0,0,2.1006621,-201.53419,-42.767106)"
       clip-path="url(#clipPath32)" />
    <path
       id="path33"
       d="m 206,28.190001 h 83.63"
       style="fill:none;stroke:#000000;stroke-width:1;stroke-linecap:butt;stroke-linejoin:miter;stroke-miterlimit:10;stroke-dasharray:none;stroke-opacity:1"
       transform="matrix(2.1006621,0,0,2.1006621,-201.53419,-42.767106)"
       clip-path="url(#clipPath34)" />
    <path
       id="path35"
       d="m 294.88,28.190001 -7,3.5 1.75,-3.5 -1.75,-3.5 z"
       style="fill:#000000;fill-opacity:1;fill-rule:nonzero;stroke:#000000;stroke-width:1;stroke-linecap:butt;stroke-linejoin:miter;stroke-miterlimit:10;stroke-dasharray:none;stroke-opacity:1"
       transform="matrix(2.1006621,0,0,2.1006621,-201.53419,-42.767106)"
       clip-path="url(#clipPath36)" />
    <path
       id="path37"
       d="M 296,53.349998 H 212.37"
       style="fill:none;stroke:#000000;stroke-width:1;stroke-linecap:butt;stroke-linejoin:miter;stroke-miterlimit:10;stroke-dasharray:none;stroke-opacity:1"
       transform="matrix(2.1006621,0,0,2.1006621,-201.53419,-42.767106)"
       clip-path="url(#clipPath38)" />
    <path
       id="path39"
       d="m 207.12,53.349998 7,-3.5 -1.75,3.5 1.75,3.5 z"
       style="fill:#000000;fill-opacity:1;fill-rule:nonzero;stroke:#000000;stroke-width:1;stroke-linecap:butt;stroke-linejoin:miter;stroke-miterlimit:10;stroke-dasharray:none;stroke-opacity:1"
       transform="matrix(2.1006621,0,0,2.1006621,-201.53419,-42.767106)"
       clip-path="url(#clipPath40)" />
    <path
       id="path41"
       d="m 1.7380361,-8.3282739 c 0.1623298,0 0.3003101,0.060874 0.4220574,0.1785627 0.1176891,0.1095726 0.1785628,0.2434947 0.1785628,0.4058245 0,0.1623298 -0.060874,0.3043683 -0.1785628,0.4220574 -0.1217473,0.1217473 -0.2597276,0.1785628 -0.4220574,0.1785628 -0.1623298,0 -0.3043683,-0.056815 -0.4220574,-0.1785628 -0.1217473,-0.1176891 -0.1785628,-0.2597276 -0.1785628,-0.4220574 0,-0.1623298 0.056816,-0.2962519 0.1785628,-0.4058245 0.1176891,-0.1176891 0.2597276,-0.1785627 0.4220574,-0.1785627 z m 0.4869894,2.8083051 v 4.3017392 c 0,0.33683427 0.020291,0.56409596 0.064932,0.68178505 0.052757,0.1095726 0.1298638,0.19073749 0.2272617,0.24349467 0.097398,0.0568154 0.2678441,0.0811649 0.5194552,0.0811649 V -7.5627579e-4 H 0.43939788 V -0.21178499 c 0.25972765,0 0.43017392,-0.0202912 0.5194553,-0.0649319 0.0852231,-0.0527572 0.15421332,-0.13798031 0.21102872,-0.25972765 0.052757,-0.11768909 0.081165,-0.34495078 0.081165,-0.68178506 v -2.0615882 c 0,-0.5843872 -0.016233,-0.9618039 -0.048699,-1.1363085 -0.032466,-0.117689 -0.077107,-0.1988539 -0.1298638,-0.2434946 -0.056815,-0.052757 -0.13798029,-0.081165 -0.24349465,-0.081165 -0.1095726,0 -0.23943642,0.028408 -0.38959147,0.081165 l -0.081165,-0.2110287 1.60706482,-0.6493192 z m 3.0396251,1.1363085 c 0.6371443,-0.7548335 1.2377645,-1.1363085 1.8018605,-1.1363085 0.2921936,0 0.5397465,0.077107 0.746717,0.2272617 0.2150869,0.1420386 0.3895915,0.381475 0.5194553,0.7142511 0.085223,0.2272617 0.1298638,0.5843872 0.1298638,1.0713765 v 2.2888499 c 0,0.34900901 0.02435,0.58032894 0.081165,0.69801803 0.040582,0.0973979 0.1055143,0.17450451 0.1947957,0.22726169 0.097398,0.0568154 0.2759606,0.0811649 0.5356883,0.0811649 V -7.5627579e-4 H 6.6282207 V -0.21178499 h 0.1136308 c 0.247553,0 0.4220575,-0.0365242 0.5194553,-0.11363084 0.097398,-0.0730484 0.1663881,-0.18667925 0.2110287,-0.34089254 0.00812,-0.0527572 0.016233,-0.23537818 0.016233,-0.55192123 v -2.191452 c 0,-0.4869894 -0.064932,-0.8359984 -0.1947957,-1.0551436 -0.1217473,-0.2272617 -0.3327761,-0.3408925 -0.6330861,-0.3408925 -0.4666982,0 -0.9333963,0.2556694 -1.3960361,0.7629499 v 2.8245382 c 0,0.36930023 0.020291,0.59656192 0.064932,0.68178505 0.052757,0.1095726 0.1298638,0.19073749 0.2272617,0.24349467 0.097398,0.0568154 0.2921936,0.0811649 0.5843872,0.0811649 V -7.5627579e-4 H 3.495256 V -0.21178499 h 0.1136308 c 0.2678441,0 0.4545234,-0.0689901 0.5519213,-0.21102871 0.097398,-0.13798031 0.1460968,-0.40582445 0.1460968,-0.7954159 v -1.9804233 c 0,-0.6493191 -0.016233,-1.0429688 -0.048699,-1.1850074 -0.032466,-0.1379803 -0.081165,-0.2313199 -0.1460968,-0.2759606 -0.056815,-0.052757 -0.1298638,-0.081165 -0.2272617,-0.081165 -0.1095726,0 -0.2394364,0.028408 -0.3895914,0.081165 L 3.397858,-4.8706496 5.0211558,-5.5199688 h 0.2434947 z m 6.5378314,-0.5681542 v 3.5387891 c 0,0.49916412 0.05276,0.81164894 0.16233,0.94151277 0.150155,0.17450451 0.344951,0.25972764 0.584387,0.25972764 h 0.48699 V -7.5627579e-4 H 9.8382921 V -0.21178499 h 0.2272619 c 0.16233,0 0.308426,-0.0365242 0.43829,-0.11363084 0.129864,-0.0730484 0.215087,-0.17856276 0.259728,-0.30842658 0.05276,-0.13798031 0.08117,-0.39770799 0.08117,-0.77918299 V -4.9518145 H 9.8058261 V -5.373872 h 1.0389109 v -0.3408925 c 0,-0.5397465 0.08117,-0.9942699 0.243494,-1.3635701 0.170447,-0.365242 0.438291,-0.6655521 0.795416,-0.8928138 0.357126,-0.2272617 0.754834,-0.3408925 1.201241,-0.3408925 0.397708,0 0.771066,0.1298638 1.120075,0.3895914 0.227262,0.1745045 0.340893,0.3733585 0.340893,0.6006202 0,0.1095726 -0.05682,0.2191452 -0.16233,0.3246596 -0.0974,0.1095726 -0.202912,0.1623297 -0.308427,0.1623297 -0.0974,0 -0.194795,-0.032466 -0.292193,-0.097398 -0.0974,-0.064932 -0.223204,-0.2029123 -0.373359,-0.4220575 -0.142038,-0.2150869 -0.271902,-0.3611837 -0.389591,-0.4382904 -0.121748,-0.064932 -0.25567,-0.097398 -0.405825,-0.097398 -0.186679,0 -0.340892,0.048699 -0.470756,0.1460968 -0.121747,0.089281 -0.206971,0.2353782 -0.259728,0.4382904 -0.05682,0.1947957 -0.08117,0.714251 -0.08117,1.5583659 v 0.3733584 h 1.379804 v 0.4220575 z M 15.5523,-8.3282739 v 7.1100443 c 0,0.33683427 0.02029,0.56409596 0.06493,0.68178505 0.05276,0.1095726 0.129864,0.19073749 0.227262,0.24349467 0.105514,0.0568154 0.296252,0.0811649 0.568154,0.0811649 v 0.21102870421 h -2.62974 V -0.21178499 c 0.247553,0 0.413941,-0.0202912 0.503222,-0.0649319 0.08522,-0.0527572 0.154213,-0.13798031 0.211029,-0.25972765 0.05276,-0.11768909 0.08117,-0.34495078 0.08117,-0.68178506 V -6.088123 c 0,-0.6046784 -0.01623,-0.9739787 -0.0487,-1.1038425 -0.02435,-0.1379803 -0.06493,-0.2353782 -0.129864,-0.2921936 -0.05682,-0.052757 -0.129864,-0.081165 -0.227262,-0.081165 -0.0974,0 -0.227262,0.032466 -0.389591,0.097398 l -0.0974,-0.2110287 1.607065,-0.6493191 z m 4.11506,2.8083051 c 0.811649,0 1.460968,0.3084266 1.947958,0.9252798 0.422057,0.5194553 0.633086,1.1281919 0.633086,1.8180935 0,0.4788729 -0.121748,0.9658622 -0.357126,1.460968 -0.227262,0.48698935 -0.543805,0.8562896 -0.941513,1.10384251 -0.401766,0.24755291 -0.852231,0.37335849 -1.347337,0.37335849 -0.811649,0 -1.456909,-0.31654307 -1.931724,-0.95774569 -0.401766,-0.55192121 -0.60062,-1.16065791 -0.60062,-1.83432651 0,-0.4869893 0.117689,-0.9739787 0.357125,-1.460968 0.247553,-0.4869893 0.572213,-0.8441149 0.973979,-1.0713765 0.397708,-0.2353782 0.819765,-0.3571256 1.266172,-0.3571256 z m -0.178563,0.3733585 c -0.219145,0 -0.430173,0.064932 -0.633086,0.1947958 -0.20697,0.1217473 -0.373358,0.3368343 -0.503222,0.6493191 -0.129864,0.3043683 -0.194796,0.698018 -0.194796,1.1850074 0,0.7791829 0.150155,1.4528515 0.454524,2.0128892 0.312484,0.56409601 0.722367,0.84411488 1.233706,0.84411488 0.377417,0 0.689901,-0.15015505 0.941513,-0.45452338 0.247553,-0.3124848 0.373358,-0.8522313 0.373358,-1.6232978 0,-0.9496292 -0.20697,-1.6963462 -0.616853,-2.2401509 -0.284077,-0.3774168 -0.633086,-0.5681543 -1.055144,-0.5681543 z m 3.254712,-0.2272617 h 2.240151 v 0.2272617 c -0.20697,0.012175 -0.340892,0.048699 -0.405824,0.1136309 -0.06493,0.056815 -0.0974,0.1379803 -0.0974,0.2434947 0,0.1217473 0.03247,0.2678441 0.0974,0.4382904 l 1.152541,3.0842657 1.152542,-2.4998785 -0.308427,-0.795416 c -0.08928,-0.2353781 -0.20697,-0.3977079 -0.357125,-0.4869893 -0.08928,-0.052757 -0.251611,-0.085223 -0.48699,-0.097398 V -5.373872 h 2.548578 v 0.2272617 c -0.284077,0.012175 -0.478873,0.060874 -0.584387,0.1460968 -0.08928,0.064932 -0.129864,0.1704463 -0.129864,0.3084266 0,0.077107 0.01623,0.1542133 0.0487,0.2272617 l 1.217473,3.0842658 1.136309,-2.9706349 c 0.07305,-0.2029123 0.11363,-0.3733585 0.11363,-0.5032224 0,-0.073048 -0.04058,-0.1379803 -0.11363,-0.1947957 -0.07711,-0.052757 -0.223204,-0.085223 -0.438291,-0.097398 V -5.373872 h 1.68823 v 0.2272617 c -0.349009,0.056815 -0.596562,0.2840771 -0.746717,0.6817851 L 28.668546,0.1615735 H 28.425052 L 27.093948,-3.2635848 25.519349,0.1615735 H 25.30832 l -1.720696,-4.5127678 c -0.109572,-0.2800189 -0.223203,-0.4707564 -0.340892,-0.5681543 -0.109573,-0.097398 -0.275961,-0.1704462 -0.503223,-0.2272617 z m 0,0"
       style="fill:#000000;fill-opacity:1;fill-rule:nonzero;stroke:none"
       aria-label="inflow"
       transform="matrix(2.1006621,0,0,2.1006621,302.26365,59.115)"
       clip-path="url(#clipPath42)" />
    <path
       id="path43"
       d="m 3.0011075,-5.5194692 c 0.8116489,0 1.460968,0.3084266 1.9479573,0.9252797 0.4220575,0.5194553 0.6330862,1.128192 0.6330862,1.8180936 0,0.4788728 -0.1217474,0.9658621 -0.3571255,1.460968 -0.2272617,0.4869893 -0.5438048,0.85628954 -0.9415128,1.10384246 -0.4017662,0.24755291 -0.8522313,0.37335849 -1.3473371,0.37335849 -0.8116489,0 -1.4569098,-0.31654307 -1.9317244,-0.9577457 C 0.602685,-1.3475939 0.40383102,-1.9563306 0.40383102,-2.6299991 c 0,-0.4869894 0.11768909,-0.9739787 0.35712551,-1.4609681 C 1.0085094,-4.5779565 1.333169,-4.935082 1.7349352,-5.1623437 2.1326432,-5.3977219 2.5547006,-5.5194692 3.0011075,-5.5194692 Z m -0.1785628,0.3733585 c -0.2191452,0 -0.4301739,0.064932 -0.6330861,0.1947957 -0.2069705,0.1217474 -0.3733585,0.3368343 -0.5032223,0.6493191 -0.1298638,0.3043684 -0.1947958,0.6980181 -0.1947958,1.1850074 0,0.779183 0.1501551,1.4528515 0.4545234,2.0128893 0.3124848,0.56409595 0.7223675,0.84411482 1.2337063,0.84411482 0.3774168,0 0.6899016,-0.15015504 0.9415128,-0.45452338 0.2475529,-0.31248484 0.3733584,-0.85223134 0.3733584,-1.62329774 0,-0.9496293 -0.2069704,-1.6963462 -0.6168531,-2.240151 C 3.5936112,-4.9553732 3.2446021,-5.1461107 2.8225447,-5.1461107 Z m 8.2585273,-0.2272617 v 3.2628285 c 0,0.6168532 0.0081,0.9983282 0.03247,1.1363085 0.03247,0.14203855 0.08117,0.23943642 0.146097,0.2921936 0.06493,0.0568154 0.13798,0.0811649 0.227262,0.0811649 0.117689,0 0.251611,-0.032466 0.405824,-0.0973979 l 0.08117,0.19479573 -1.590832,0.6655521 h -0.27596 V -0.9742354 C 9.6525702,-0.47507133 9.2995029,-0.16258651 9.05195,-0.03272269 8.8125136,0.09714114 8.5568442,0.16207305 8.289,0.16207305 7.9846317,0.16207305 7.724904,0.07279167 7.5098171,-0.0976546 7.2906719,-0.26810087 7.1405168,-0.49130431 7.0552937,-0.76320669 6.9660123,-1.0432256 6.9254299,-1.432817 6.9254299,-1.9319811 v -2.3862477 c 0,-0.2597277 -0.028408,-0.4382904 -0.081165,-0.5356883 C 6.7874496,-4.951315 6.7062847,-5.0243634 6.6007703,-5.0811788 6.4911977,-5.133936 6.296402,-5.1542272 6.0163831,-5.1461107 v -0.2272617 h 1.8830255 v 3.6037211 c 0,0.499164 0.085223,0.82788185 0.2597276,0.99021163 0.1704463,0.15421329 0.3774167,0.22726169 0.6168532,0.22726169 0.1704462,0 0.3611837,-0.0527572 0.5681542,-0.16232978 0.2150869,-0.10551435 0.4707563,-0.30842654 0.7629504,-0.60062014 v -3.0355669 c 0,-0.3124848 -0.05682,-0.5194553 -0.1623302,-0.6168532 C 9.8351912,-5.0730623 9.6038712,-5.133936 9.2467457,-5.1461107 V -5.3733724 Z M 13.92996,-7.126534 v 1.7531616 h 1.249939 V -4.951315 H 13.92996 v 3.4738573 c 0,0.349009 0.0487,0.58438719 0.146097,0.71425101 0.0974,0.12174733 0.227261,0.17856276 0.389591,0.17856276 0.129864,0 0.251611,-0.0365242 0.373359,-0.11363085 0.117689,-0.0852231 0.211028,-0.21102871 0.27596,-0.37335852 h 0.227262 c -0.129864,0.3895915 -0.320601,0.6817851 -0.568154,0.87658083 -0.251611,0.18667925 -0.511339,0.27596063 -0.779183,0.27596063 -0.186679,0 -0.365242,-0.04869894 -0.535689,-0.1460968 -0.162329,-0.09739787 -0.288135,-0.23537818 -0.373358,-0.42205743 -0.07711,-0.182621 -0.113631,-0.47075636 -0.113631,-0.86034783 V -4.951315 h -0.860348 v -0.1947957 c 0.215087,-0.085223 0.438291,-0.23132 0.665552,-0.4382904 0.227262,-0.2029122 0.426116,-0.4464069 0.600621,-0.730484 0.08522,-0.1501551 0.211028,-0.4220575 0.373358,-0.8116489 z m 3.871565,2.175219 v 3.5387892 c 0,0.49916406 0.05276,0.81164889 0.16233,0.94151271 0.150155,0.17450451 0.344951,0.25972765 0.584387,0.25972765 h 0.486989 V -2.5673108e-4 H 15.837335 V -0.21128544 h 0.227261 c 0.16233,0 0.308427,-0.0365242 0.438291,-0.11363085 0.129864,-0.0730484 0.215087,-0.17856276 0.259727,-0.30842658 0.05276,-0.13798031 0.08117,-0.39770793 0.08117,-0.77918293 V -4.951315 h -1.03891 v -0.4220574 h 1.03891 v -0.3408925 c 0,-0.5397466 0.08116,-0.9942699 0.243495,-1.3635702 0.170446,-0.365242 0.43829,-0.6655521 0.795416,-0.8928138 0.357125,-0.2272617 0.754833,-0.3408925 1.20124,-0.3408925 0.397708,0 0.771067,0.1298638 1.120076,0.3895915 0.227261,0.1745045 0.340892,0.3733585 0.340892,0.6006201 0,0.1095726 -0.05682,0.2191452 -0.162329,0.3246596 -0.0974,0.1095726 -0.202913,0.1623298 -0.308427,0.1623298 -0.0974,0 -0.194796,-0.032466 -0.292194,-0.097398 -0.0974,-0.064932 -0.223203,-0.2029122 -0.373358,-0.4220574 -0.142039,-0.215087 -0.271903,-0.3611838 -0.389592,-0.4382904 -0.121747,-0.064932 -0.255669,-0.097398 -0.405824,-0.097398 -0.186679,0 -0.340893,0.048699 -0.470756,0.1460968 -0.121748,0.089281 -0.206971,0.2353782 -0.259728,0.4382904 -0.05682,0.1947958 -0.08116,0.7142511 -0.08116,1.5583659 v 0.3733585 h 1.379803 v 0.4220574 z m 3.753876,-3.3764594 v 7.1100443 c 0,0.33683432 0.02029,0.56409601 0.06493,0.6817851 0.05276,0.1095726 0.129864,0.19073749 0.227262,0.24349467 0.105514,0.0568154 0.296252,0.0811649 0.568154,0.0811649 v 0.21102869892 h -2.62974 V -0.21128544 c 0.247553,0 0.413941,-0.0202912 0.503222,-0.0649319 0.08522,-0.0527572 0.154213,-0.13798031 0.211029,-0.25972764 0.05276,-0.11768909 0.08117,-0.34495078 0.08117,-0.68178512 v -4.8698933 c 0,-0.6046785 -0.01623,-0.9739787 -0.0487,-1.1038425 -0.02435,-0.1379803 -0.06493,-0.2353782 -0.129864,-0.2921936 -0.05682,-0.052757 -0.129864,-0.081165 -0.227262,-0.081165 -0.0974,0 -0.227262,0.032466 -0.389591,0.097398 l -0.0974,-0.2110287 1.607065,-0.6493191 z m 4.111002,2.8083052 c 0.811649,0 1.460968,0.3084266 1.947957,0.9252797 0.422058,0.5194553 0.633086,1.128192 0.633086,1.8180936 0,0.4788728 -0.121747,0.9658621 -0.357125,1.460968 -0.227262,0.4869893 -0.543805,0.85628954 -0.941513,1.10384246 -0.401766,0.24755291 -0.852231,0.37335849 -1.347337,0.37335849 -0.811649,0 -1.45691,-0.31654307 -1.931724,-0.9577457 -0.401767,-0.55192125 -0.600621,-1.16065795 -0.600621,-1.83432645 0,-0.4869894 0.117689,-0.9739787 0.357126,-1.4609681 0.247553,-0.4869893 0.572212,-0.8441148 0.973979,-1.0713765 0.397708,-0.2353782 0.819765,-0.3571255 1.266172,-0.3571255 z m -0.178563,0.3733585 c -0.219145,0 -0.430174,0.064932 -0.633086,0.1947957 -0.206971,0.1217474 -0.373359,0.3368343 -0.503222,0.6493191 -0.129864,0.3043684 -0.194796,0.6980181 -0.194796,1.1850074 0,0.779183 0.150155,1.4528515 0.454523,2.0128893 0.312485,0.56409595 0.722368,0.84411482 1.233707,0.84411482 0.377416,0 0.689901,-0.15015504 0.941512,-0.45452338 0.247553,-0.31248484 0.373359,-0.85223134 0.373359,-1.62329774 0,-0.9496293 -0.206971,-1.6963462 -0.616853,-2.240151 -0.284077,-0.3774167 -0.633086,-0.5681542 -1.055144,-0.5681542 z m 3.25877,-0.2272617 h 2.240151 v 0.2272617 c -0.20697,0.012175 -0.340892,0.048699 -0.405824,0.1136308 -0.06493,0.056815 -0.0974,0.1379803 -0.0974,0.2434947 0,0.1217473 0.03247,0.2678441 0.0974,0.4382904 l 1.152541,3.0842658 1.152542,-2.4998786 -0.308427,-0.7954159 c -0.08928,-0.2353782 -0.20697,-0.397708 -0.357125,-0.4869894 -0.08928,-0.052757 -0.251611,-0.085223 -0.48699,-0.097398 v -0.2272617 h 2.548578 v 0.2272617 c -0.284077,0.012175 -0.478873,0.060874 -0.584387,0.1460968 -0.08928,0.064932 -0.129864,0.1704463 -0.129864,0.3084266 0,0.077107 0.01623,0.1542133 0.0487,0.2272617 l 1.217473,3.0842657 1.136309,-2.9706349 c 0.07305,-0.2029122 0.11363,-0.3733585 0.11363,-0.5032223 0,-0.073048 -0.04058,-0.1379803 -0.11363,-0.1947958 -0.07711,-0.052757 -0.223204,-0.085223 -0.438291,-0.097398 v -0.2272617 h 1.68823 v 0.2272617 c -0.349009,0.056815 -0.596562,0.2840771 -0.746717,0.6817851 L 34.671647,0.16207305 H 34.428153 L 33.097048,-3.2630853 31.52245,0.16207305 H 31.311421 L 29.590725,-4.3506948 C 29.481153,-4.6307137 29.367522,-4.8214512 29.249833,-4.918849 29.14026,-5.0162469 28.973872,-5.0892953 28.74661,-5.1461107 Z m 0,0"
       style="fill:#000000;fill-opacity:1;fill-rule:nonzero;stroke:none"
       aria-label="outflow"
       transform="matrix(2.1006621,0,0,2.1006621,295.96168,2.3971257)"
       clip-path="url(#clipPath44)" />
  </g>
</svg>
